<svg xmlns="http://www.w3.org/2000/svg" height="35" viewBox="0 -960 960 960" width="35"><path d="M442.123-763.718v-162.42h75.754v162.42h-75.754Zm264.913 109.725-52.949-52.949 114.616-115.804 53.282 53.804-114.949 114.949Zm56.682 211.87v-75.754h162.42v75.754h-162.42ZM442.123-33.863v-162.419h75.754v162.42h-75.754ZM252.297-654.847 137.92-768.464l53.616-53.043 114.71 114.71-53.949 51.949Zm516.739 517.247L654.087-253.297l51.949-51.949 116.377 112.137-53.377 55.508ZM33.862-442.123v-75.754h162.42v75.754H33.862ZM192.203-137.92l-53.949-53.616 113.949-113.949 27.522 25.772 27.76 26.51L192.203-137.92Zm287.722-103.674q-99.367 0-168.849-69.557-69.482-69.557-69.482-168.924t69.557-168.849q69.557-69.482 168.924-69.482t168.849 69.557q69.482 69.557 69.482 168.924t-69.557 168.849q-69.557 69.482-168.924 69.482Z"/></svg>